# xmcd
# Track frame offsets:
# 150
# 16350
# 30728
# 48456
# 66747
# 83360
# 100598
# 114321
# 129771
#
# Disc length: 1966 seconds
# Revision: 0
# Processed by: cddbd v1.5.1PL0 Copyright (c) Steve Scherf et al.
# Submitted via: VisiTrax 2.9.10.228 - For more info visit www.synapsa.com
#
DISCID=6707ac09
DTITLE=Various Artist - Hits Monthly Nashville  PHN0302
DYEAR=1900
DGENRE=Karaoke
TTITLE0=Diamond Rio - I Believe
TTITLE1=Gill, Vince - Next Big Thing
TTITLE2=McBride, Martina - Concrete Angel
TTITLE3=Hill, Faith - When The Lights Go Down
TTITLE4=Byrd, Tracy - Lately
TTITLE5=Cagle, Chris - What A Beautiful Day
TTITLE6=Denney, Kevin - Itll Go Away
TTITLE7=Worley, Darryl - Family Tree
TTITLE8=Shelton, Blake - Baby, The
EXTD=
EXTT0=
EXTT1=
EXTT2=
EXTT3=
EXTT4=
EXTT5=
EXTT6=
EXTT7=
EXTT8=
PLAYORDER=
